<?xml version="1.0" standalone="no"?>
<!DOCTYPE svg PUBLIC "-//W3C//DTD SVG 20010904//EN"
 "http://www.w3.org/TR/2001/REC-SVG-20010904/DTD/svg10.dtd">
<svg version="1.0" xmlns="http://www.w3.org/2000/svg"
 width="250.000000pt" height="250.000000pt" viewBox="0 0 250.000000 250.000000"
 preserveAspectRatio="xMidYMid meet">
<metadata>
Created by potrace 1.11, written by Peter Selinger 2001-2013
</metadata>
<g transform="translate(0.000000,250.000000) scale(0.100000,-0.100000)"
fill="#000000" stroke="none">
<path d="M1495 2099 c-3 -10 -11 -18 -17 -16 -6 1 -15 -9 -19 -23 -7 -24 -7
-24 -8 5 l-2 30 -19 -23 c-11 -13 -16 -30 -13 -39 4 -11 2 -14 -5 -9 -15 9
-32 -25 -31 -61 0 -15 3 -22 6 -15 7 17 20 15 27 -4 4 -9 1 -24 -6 -32 -10
-12 -10 -14 0 -8 6 4 12 3 12 -2 0 -6 10 -8 23 -5 18 4 19 3 7 -7 -12 -9 -10
-11 13 -7 22 3 25 2 16 -10 -10 -11 -8 -12 5 -7 11 4 16 2 14 -6 -5 -19 50
-23 68 -5 9 8 21 12 27 8 7 -3 8 -2 4 2 -4 5 -14 10 -22 11 -23 3 -98 49 -120
74 -15 16 -16 23 -6 29 7 5 12 10 12 12 -1 2 4 19 10 37 7 20 14 29 19 23 9
-15 40 -3 40 16 0 20 24 11 28 -12 3 -10 0 -15 -7 -11 -6 4 -11 2 -11 -3 0 -6
9 -16 20 -23 11 -7 32 -30 47 -51 22 -31 28 -35 42 -25 9 7 13 8 9 4 -4 -5 -2
-16 5 -24 10 -13 9 -15 -5 -9 -22 8 -23 -3 -3 -29 19 -25 19 -35 0 -28 -20 8
-65 -4 -65 -17 0 -6 9 -8 21 -4 13 4 19 3 15 -3 -3 -5 13 -10 40 -10 l46 -1
-6 32 c-3 18 -12 37 -19 42 -7 6 -13 17 -13 25 -2 49 -44 91 -58 58 -2 -7 -4
-2 -3 12 1 14 7 28 12 32 6 5 5 8 -3 8 -7 0 -10 5 -7 10 3 6 -1 13 -9 16 -9 3
-16 12 -16 20 0 8 -6 14 -14 14 -8 0 -16 4 -18 9 -1 6 -15 12 -30 15 -20 3
-29 0 -33 -15z m16 -36 c-12 -20 -14 -14 -5 12 4 9 9 14 11 11 3 -2 0 -13 -6
-23z m139 -93 c0 -5 -7 -10 -16 -10 -8 0 -12 5 -9 10 3 6 10 10 16 10 5 0 9
-4 9 -10z m-185 -48 c-9 -9 -35 -11 -35 -3 0 14 12 20 26 14 8 -3 12 -8 9 -11z"/>
<path d="M1832 2006 c-30 -16 -17 -28 16 -15 21 8 23 7 14 -4 -9 -11 -7 -17
12 -27 14 -7 22 -18 20 -25 -4 -9 3 -11 20 -8 l25 5 -26 35 c-35 45 -53 54
-81 39z"/>
<path d="M1787 1956 c-19 -28 -30 -76 -17 -76 14 0 38 45 38 73 0 33 -2 33
-21 3z"/>
<path d="M1900 1884 c0 -8 5 -12 10 -9 6 4 8 11 5 16 -9 14 -15 11 -15 -7z"/>
<path d="M1838 1869 c-16 -11 -28 -17 -28 -14 0 4 -7 2 -15 -5 -16 -14 -38 -4
-29 13 3 7 -2 3 -10 -7 -30 -37 -22 -39 59 -22 29 6 83 36 65 36 -13 0 -13 1
0 10 13 9 13 10 0 10 -8 -1 -27 -10 -42 -21z"/>
<path d="M1297 1770 c-11 -13 -13 -20 -4 -20 7 0 8 -3 2 -8 -12 -9 -14 -72 -2
-72 5 0 7 -6 4 -14 -4 -9 3 -16 17 -18 43 -8 47 1 21 49 -14 24 -21 42 -16 39
5 -4 12 -2 16 4 3 5 2 10 -3 10 -5 0 -7 11 -4 25 5 30 -7 32 -31 5z m37 -112
c-4 -6 -10 -5 -15 3 -14 22 -10 33 6 19 8 -7 12 -17 9 -22z"/>
<path d="M1347 1784 c-8 -9 2 -91 15 -127 10 -26 12 -27 29 -11 16 14 19 15
24 2 7 -17 35 -20 35 -3 0 6 -6 17 -12 24 -11 11 -9 12 10 6 26 -8 29 2 5 22
-16 13 -16 13 6 3 17 -9 26 -9 35 0 8 9 7 11 -4 8 -10 -2 -15 6 -15 25 -1 15
3 27 7 27 4 0 8 -4 8 -10 0 -5 4 -10 9 -10 5 0 7 10 5 23 -4 20 -4 20 7 -3
l12 -25 5 23 c2 13 9 21 15 19 7 -2 10 -13 9 -23 -5 -24 -2 -22 -34 -26 -15
-2 -31 -7 -35 -12 -4 -4 -1 -6 7 -4 8 2 14 -4 15 -12 0 -8 8 -15 18 -15 19 0
39 -24 31 -37 -3 -4 0 -8 5 -8 14 0 14 6 1 30 -7 13 -7 21 2 26 6 4 8 3 5 -3
-8 -13 17 -36 27 -26 4 4 4 0 1 -8 -4 -11 0 -18 12 -21 25 -7 43 1 43 19 0 10
-6 12 -22 7 -20 -6 -21 -5 -9 10 10 12 10 16 1 16 -9 0 -9 4 -2 13 14 17 11
87 -4 87 -7 0 -15 -8 -17 -17 -4 -17 -5 -17 -6 0 -1 16 -9 18 -66 15 -50 -2
-65 -6 -65 -18 -1 -12 -3 -12 -11 3 -12 20 -59 23 -77 5 -19 -19 -14 -29 9
-16 17 11 23 11 26 0 3 -6 8 -10 13 -7 4 3 3 -6 -3 -20 -11 -23 -13 -24 -25
-7 -7 9 -18 17 -25 17 -7 0 -11 11 -10 23 3 23 1 26 -10 16z"/>
<path d="M1637 1778 c-2 -7 0 -21 5 -31 5 -10 8 -28 7 -40 -1 -12 3 -35 10
-51 11 -27 13 -28 30 -12 9 9 20 14 22 11 3 -2 5 11 6 30 0 25 -3 32 -13 28
-8 -3 -14 0 -14 6 0 6 5 11 10 11 6 0 10 5 10 10 0 6 -9 10 -20 10 -11 0 -20
-5 -20 -11 0 -5 -5 -7 -11 -3 -6 3 -8 17 -5 30 6 24 -9 34 -17 12z"/>
<path d="M1666 1774 c-9 -24 -8 -26 13 -15 10 6 21 8 23 5 3 -3 8 2 11 11 5
11 0 15 -17 15 -13 0 -27 -7 -30 -16z"/>
<path d="M1736 1739 c1 -30 3 -57 3 -61 1 -5 8 -8 17 -8 14 0 14 3 4 15 -14
17 0 21 17 4 7 -7 12 -6 16 5 4 10 1 16 -8 16 -10 0 -14 9 -13 25 1 14 6 25
11 25 5 0 7 -6 4 -14 -3 -8 1 -20 8 -26 8 -7 12 -16 9 -21 -5 -9 0 -11 29 -13
6 -1 15 -5 19 -10 4 -6 14 -4 25 5 16 13 17 12 4 -3 -12 -16 -43 -19 -56 -6
-9 8 -45 -3 -45 -13 0 -5 -11 -7 -25 -5 -16 3 -23 1 -19 -5 3 -6 8 -8 11 -5 3
3 14 1 24 -5 15 -7 21 -6 25 6 3 8 10 12 15 9 5 -3 7 -10 4 -15 -3 -5 1 -6 9
-3 9 3 16 11 16 17 0 6 7 2 16 -9 8 -10 13 -14 10 -7 -9 17 13 27 29 13 20
-16 86 -15 96 1 7 11 11 10 21 -4 12 -16 15 -16 33 -2 11 9 16 14 10 12 -5 -3
-16 2 -23 9 -12 13 -9 14 15 8 25 -7 27 -6 14 9 -16 20 -1 23 18 5 11 -10 13
-10 7 0 -8 14 10 17 19 3 3 -6 14 -8 25 -6 12 2 18 0 15 -4 -3 -5 1 -11 9 -14
12 -5 14 7 13 56 l-2 62 -39 3 c-24 2 -42 -2 -47 -10 -7 -10 -9 -10 -9 2 0 13
-1 13 -11 0 -8 -11 -12 -12 -16 -2 -2 6 -19 12 -37 12 -18 0 -38 -6 -45 -12
-11 -10 -13 -10 -7 0 4 6 2 12 -3 12 -11 0 -14 -11 -8 -27 1 -5 6 -7 10 -5 4
1 2 -8 -4 -20 -11 -21 -11 -22 4 -9 10 7 17 20 17 27 0 8 6 14 13 14 24 0 36
-16 30 -38 -6 -25 -23 -30 -23 -7 0 8 6 15 13 15 8 0 7 3 -3 9 -17 12 -45 -22
-36 -45 3 -8 2 -13 -2 -10 -4 2 -18 -2 -32 -10 -23 -14 -23 -14 -2 -9 17 5 22
2 21 -12 0 -10 -3 -13 -6 -5 -2 6 -9 10 -14 6 -21 -12 -30 9 -12 29 10 11 12
17 6 13 -8 -4 -13 -1 -13 9 0 9 4 14 9 10 5 -3 9 10 8 30 -2 34 -20 48 -30 23
-4 -10 -6 -10 -6 0 -1 15 -111 17 -111 1 0 -5 -4 -7 -10 -4 -5 3 -10 1 -10 -6
0 -8 -6 -5 -13 5 -12 16 -13 11 -11 -35z m85 11 c5 0 9 7 9 15 0 17 16 20 25
5 9 -15 -32 -50 -52 -43 -9 4 -12 8 -6 10 6 2 10 12 8 21 -1 9 0 11 2 5 3 -7
9 -13 14 -13z m329 10 c0 -23 -25 -39 -54 -33 -17 4 -18 3 -6 -6 13 -9 12 -11
-6 -11 -17 0 -20 5 -16 25 4 22 7 24 20 13 13 -11 15 -10 9 5 -3 9 -2 17 3 17
6 0 10 -7 10 -17 0 -16 14 -10 16 8 3 17 4 19 14 19 6 0 10 -9 10 -20z"/>
<path d="M1390 1750 c0 -5 5 -10 11 -10 5 0 7 5 4 10 -3 6 -8 10 -11 10 -2 0
-4 -4 -4 -10z"/>
<path d="M1486 1664 c-3 -9 -11 -12 -18 -8 -10 5 -10 4 -2 -5 6 -6 21 -13 33
-16 19 -3 21 -2 11 10 -10 12 -9 15 3 15 9 0 18 -7 20 -15 4 -12 5 -12 3 1 -2
23 -43 38 -50 18z"/>
<path d="M2082 1658 l-21 -23 24 -1 c18 -1 22 2 18 15 -4 13 -2 13 10 -2 11
-13 17 -15 22 -7 4 7 2 17 -4 23 -6 6 -11 7 -11 2 0 -6 -4 -4 -8 3 -6 9 -14 7
-30 -10z"/>
<path d="M2150 1639 c0 -5 5 -7 10 -4 6 3 10 8 10 11 0 2 -4 4 -10 4 -5 0 -10
-5 -10 -11z"/>
<path d="M1252 1604 c-72 -19 -136 -65 -177 -127 -39 -59 -75 -179 -75 -249 0
-54 2 -55 116 -50 l71 3 6 70 c4 48 14 84 33 119 45 83 49 84 284 87 113 2
210 3 215 3 477 -5 438 -3 472 -30 70 -56 89 -185 41 -278 -39 -76 -54 -81
-268 -83 -180 -1 -188 -2 -247 -29 -63 -29 -133 -92 -160 -145 -30 -57 -43
-130 -43 -242 l0 -111 -166 -1 c-91 0 -164 3 -162 8 8 22 116 145 250 285 161
170 225 285 233 418 l4 57 -90 3 c-49 2 -90 1 -90 -2 -1 -3 -2 -18 -3 -35 -8
-102 -81 -219 -238 -380 -125 -129 -144 -150 -205 -230 -66 -86 -83 -128 -83
-207 l0 -68 364 0 364 0 1 196 c0 179 2 200 22 240 36 75 65 88 204 92 l120 4
129 -260 129 -259 94 0 c51 0 93 2 93 5 0 3 -61 123 -134 268 l-135 264 27 6
c110 27 185 132 199 281 16 168 -80 330 -220 373 -64 19 -903 23 -975 4z"/>
<path d="M20 1605 c0 -6 177 -281 247 -383 24 -35 43 -65 43 -66 0 -2 34 -55
75 -117 l74 -113 0 -151 c0 -82 0 -205 1 -272 l0 -122 90 1 90 1 0 274 0 273
215 334 c118 184 215 337 215 340 0 3 -42 6 -92 6 l-93 0 -119 -193 c-128
-205 -205 -327 -216 -340 -4 -5 -83 113 -176 262 l-169 271 -92 0 c-51 0 -93
-2 -93 -5z"/>
</g>
</svg>
